# xmcd
#
# Track frame offsets:
#	150
#	11531
#	21790
#	34664
#	48853
#	60283
#	72679
#	86407
#	96791
#	106609
#	123076
#	140374
#	152214
#	166491
#	179657
#	196073
#	214825
#	226134
#	239351
#	250623
#	263587
#	282795
#	298890
# Disc length: 4138 seconds
# Revision: 2
# Processed by: cddbd v1.5.2PL0 Copyright (c) Steve Scherf et al.
#
# Submitted via: libkcddb 0.31
#
DISCID=34102817
DTITLE=George Strait - Rocks!
DYEAR=2007
DGENRE=Unknown
TTITLE0=Good time charley's
TTITLE1=Honk if you honkey tonk
TTITLE2=Lovebug
TTITLE3=Do the right thing
TTITLE4=She lays it all on the line
TTITLE5=Home improvements
TTITLE6=Round about way
TTITLE7=Rhythm of the road
TTITLE8=The big one
TTITLE9=Wright this down
TTITLE10=One night at a time
TTITLE11=What am I waiting for
TTITLE12=Where the sidewalk ends
TTITLE13=It just comes natural
TTITLE14=I found Jesus on the jailhouse floor
TTITLE15=Wrapped
TTITLE16=We really shouldn't be doing this
TTITLE17=Wonderland of love
TTITLE18=One of you
TTITLE19=High tone woman
TTITLE20=One foot in front of the other
TTITLE21=The real thing
TTITLE22=The fireman
EXTD=
EXTT0=
EXTT1=
EXTT2=
EXTT3=
EXTT4=
EXTT5=
EXTT6=
EXTT7=
EXTT8=
EXTT9=
EXTT10=
EXTT11=
EXTT12=
EXTT13=
EXTT14=
EXTT15=
EXTT16=
EXTT17=
EXTT18=
EXTT19=
EXTT20=
EXTT21=
EXTT22=
PLAYORDER=
